<svg width="128" height="128" viewBox="0 0 128 128" fill="none" xmlns="http://www.w3.org/2000/svg">
<rect width="128" height="128" rx="15" fill="url(#paint0_linear)"/>
<path d="M18.9375 31.8926H34.4209V69.6611H58.5859V82H18.9375V31.8926ZM71.7041 45.7012H84.6582V51.6143C86.5951 49.1989 88.5547 47.4785 90.5371 46.4531C92.5195 45.4049 94.9349 44.8809 97.7832 44.8809C101.634 44.8809 104.642 46.0316 106.807 48.333C108.994 50.6117 110.088 54.1436 110.088 58.9287V82H96.1084V62.0391C96.1084 59.7604 95.6868 58.154 94.8438 57.2197C94.0007 56.2627 92.8158 55.7842 91.2891 55.7842C89.6029 55.7842 88.2357 56.4222 87.1875 57.6982C86.1393 58.9743 85.6152 61.2643 85.6152 64.5684V82H71.7041V45.7012Z" fill="white"/>
<path d="M10.8613 102.41H13.5156V108.885H17.6582V111H10.8613V102.41ZM25.6152 108.48H20.834C20.877 108.863 20.9805 109.148 21.1445 109.336C21.375 109.605 21.6758 109.74 22.0469 109.74C22.2812 109.74 22.5039 109.682 22.7148 109.564C22.8438 109.49 22.9824 109.359 23.1309 109.172L25.4805 109.389C25.1211 110.014 24.6875 110.463 24.1797 110.736C23.6719 111.006 22.9434 111.141 21.9941 111.141C21.1699 111.141 20.5215 111.025 20.0488 110.795C19.5762 110.561 19.1836 110.191 18.8711 109.688C18.5625 109.18 18.4082 108.584 18.4082 107.9C18.4082 106.928 18.7188 106.141 19.3398 105.539C19.9648 104.938 20.8262 104.637 21.9238 104.637C22.8145 104.637 23.5176 104.771 24.0332 105.041C24.5488 105.311 24.9414 105.701 25.2109 106.213C25.4805 106.725 25.6152 107.391 25.6152 108.211V108.48ZM23.1895 107.338C23.1426 106.877 23.0176 106.547 22.8145 106.348C22.6152 106.148 22.3516 106.049 22.0234 106.049C21.6445 106.049 21.3418 106.199 21.1152 106.5C20.9707 106.688 20.8789 106.967 20.8398 107.338H23.1895ZM28.8848 106.793L26.6055 106.553C26.6914 106.154 26.8145 105.842 26.9746 105.615C27.1387 105.385 27.373 105.186 27.6777 105.018C27.8965 104.896 28.1973 104.803 28.5801 104.736C28.9629 104.67 29.377 104.637 29.8223 104.637C30.5371 104.637 31.1113 104.678 31.5449 104.76C31.9785 104.838 32.3398 105.004 32.6289 105.258C32.832 105.434 32.9922 105.684 33.1094 106.008C33.2266 106.328 33.2852 106.635 33.2852 106.928V109.676C33.2852 109.969 33.3027 110.199 33.3379 110.367C33.377 110.531 33.459 110.742 33.584 111H31.3457C31.2559 110.84 31.1973 110.719 31.1699 110.637C31.1426 110.551 31.1152 110.418 31.0879 110.238C30.7754 110.539 30.4648 110.754 30.1562 110.883C29.7344 111.055 29.2441 111.141 28.6855 111.141C27.9434 111.141 27.3789 110.969 26.9922 110.625C26.6094 110.281 26.418 109.857 26.418 109.354C26.418 108.881 26.5566 108.492 26.834 108.188C27.1113 107.883 27.623 107.656 28.3691 107.508C29.2637 107.328 29.8438 107.203 30.1094 107.133C30.375 107.059 30.6562 106.963 30.9531 106.846C30.9531 106.553 30.8926 106.348 30.7715 106.23C30.6504 106.113 30.4375 106.055 30.1328 106.055C29.7422 106.055 29.4492 106.117 29.2539 106.242C29.1016 106.34 28.9785 106.523 28.8848 106.793ZM30.9531 108.047C30.625 108.164 30.2832 108.268 29.9277 108.357C29.4434 108.486 29.1367 108.613 29.0078 108.738C28.875 108.867 28.8086 109.014 28.8086 109.178C28.8086 109.365 28.873 109.52 29.002 109.641C29.1348 109.758 29.3281 109.816 29.582 109.816C29.8477 109.816 30.0938 109.752 30.3203 109.623C30.5508 109.494 30.7129 109.338 30.8066 109.154C30.9043 108.967 30.9531 108.725 30.9531 108.428V108.047ZM34.7148 104.777H36.9355V105.791C37.2676 105.377 37.6035 105.082 37.9434 104.906C38.2832 104.727 38.6973 104.637 39.1855 104.637C39.8457 104.637 40.3613 104.834 40.7324 105.229C41.1074 105.619 41.2949 106.225 41.2949 107.045V111H38.8984V107.578C38.8984 107.188 38.8262 106.912 38.6816 106.752C38.5371 106.588 38.334 106.506 38.0723 106.506C37.7832 106.506 37.5488 106.615 37.3691 106.834C37.1895 107.053 37.0996 107.445 37.0996 108.012V111H34.7148V104.777ZM46.5508 106.711C46.5508 105.309 46.9414 104.217 47.7227 103.436C48.5039 102.654 49.5918 102.264 50.9863 102.264C52.416 102.264 53.5176 102.648 54.291 103.418C55.0645 104.184 55.4512 105.258 55.4512 106.641C55.4512 107.645 55.2812 108.469 54.9414 109.113C54.6055 109.754 54.1172 110.254 53.4766 110.613C52.8398 110.969 52.0449 111.146 51.0918 111.146C50.123 111.146 49.3203 110.992 48.6836 110.684C48.0508 110.375 47.5371 109.887 47.1426 109.219C46.748 108.551 46.5508 107.715 46.5508 106.711ZM49.2051 106.723C49.2051 107.59 49.3652 108.213 49.6855 108.592C50.0098 108.971 50.4492 109.16 51.0039 109.16C51.5742 109.16 52.0156 108.975 52.3281 108.604C52.6406 108.232 52.7969 107.566 52.7969 106.605C52.7969 105.797 52.6328 105.207 52.3047 104.836C51.9805 104.461 51.5391 104.273 50.9805 104.273C50.4453 104.273 50.0156 104.463 49.6914 104.842C49.3672 105.221 49.2051 105.848 49.2051 106.723ZM56.7344 113.367V104.777H58.9668V105.697C59.2754 105.311 59.5586 105.049 59.8164 104.912C60.1641 104.729 60.5488 104.637 60.9707 104.637C61.8027 104.637 62.4453 104.955 62.8984 105.592C63.3555 106.229 63.584 107.016 63.584 107.953C63.584 108.988 63.3359 109.779 62.8398 110.326C62.3438 110.869 61.7168 111.141 60.959 111.141C60.5918 111.141 60.2559 111.078 59.9512 110.953C59.6504 110.828 59.3809 110.643 59.1426 110.396V113.367H56.7344ZM59.125 107.906C59.125 108.398 59.2285 108.764 59.4355 109.002C59.6426 109.24 59.9043 109.359 60.2207 109.359C60.498 109.359 60.7305 109.246 60.918 109.02C61.1055 108.789 61.1992 108.4 61.1992 107.854C61.1992 107.35 61.1016 106.98 60.9062 106.746C60.7109 106.508 60.4727 106.389 60.1914 106.389C59.8867 106.389 59.6328 106.508 59.4297 106.746C59.2266 106.984 59.125 107.371 59.125 107.906ZM71.6348 108.48H66.8535C66.8965 108.863 67 109.148 67.1641 109.336C67.3945 109.605 67.6953 109.74 68.0664 109.74C68.3008 109.74 68.5234 109.682 68.7344 109.564C68.8633 109.49 69.002 109.359 69.1504 109.172L71.5 109.389C71.1406 110.014 70.707 110.463 70.1992 110.736C69.6914 111.006 68.9629 111.141 68.0137 111.141C67.1895 111.141 66.541 111.025 66.0684 110.795C65.5957 110.561 65.2031 110.191 64.8906 109.688C64.582 109.18 64.4277 108.584 64.4277 107.9C64.4277 106.928 64.7383 106.141 65.3594 105.539C65.9844 104.938 66.8457 104.637 67.9434 104.637C68.834 104.637 69.5371 104.771 70.0527 105.041C70.5684 105.311 70.9609 105.701 71.2305 106.213C71.5 106.725 71.6348 107.391 71.6348 108.211V108.48ZM69.209 107.338C69.1621 106.877 69.0371 106.547 68.834 106.348C68.6348 106.148 68.3711 106.049 68.043 106.049C67.6641 106.049 67.3613 106.199 67.1348 106.5C66.9902 106.688 66.8984 106.967 66.8594 107.338H69.209ZM72.7539 104.777H74.9863V105.797C75.2012 105.355 75.4219 105.053 75.6484 104.889C75.8789 104.721 76.1621 104.637 76.498 104.637C76.8496 104.637 77.2344 104.746 77.6523 104.965L76.9141 106.664C76.6328 106.547 76.4102 106.488 76.2461 106.488C75.9336 106.488 75.6914 106.617 75.5195 106.875C75.2734 107.238 75.1504 107.918 75.1504 108.914V111H72.7539V104.777ZM80.4473 106.793L78.168 106.553C78.2539 106.154 78.377 105.842 78.5371 105.615C78.7012 105.385 78.9355 105.186 79.2402 105.018C79.459 104.896 79.7598 104.803 80.1426 104.736C80.5254 104.67 80.9395 104.637 81.3848 104.637C82.0996 104.637 82.6738 104.678 83.1074 104.76C83.541 104.838 83.9023 105.004 84.1914 105.258C84.3945 105.434 84.5547 105.684 84.6719 106.008C84.7891 106.328 84.8477 106.635 84.8477 106.928V109.676C84.8477 109.969 84.8652 110.199 84.9004 110.367C84.9395 110.531 85.0215 110.742 85.1465 111H82.9082C82.8184 110.84 82.7598 110.719 82.7324 110.637C82.7051 110.551 82.6777 110.418 82.6504 110.238C82.3379 110.539 82.0273 110.754 81.7188 110.883C81.2969 111.055 80.8066 111.141 80.248 111.141C79.5059 111.141 78.9414 110.969 78.5547 110.625C78.1719 110.281 77.9805 109.857 77.9805 109.354C77.9805 108.881 78.1191 108.492 78.3965 108.188C78.6738 107.883 79.1855 107.656 79.9316 107.508C80.8262 107.328 81.4062 107.203 81.6719 107.133C81.9375 107.059 82.2188 106.963 82.5156 106.846C82.5156 106.553 82.4551 106.348 82.334 106.23C82.2129 106.113 82 106.055 81.6953 106.055C81.3047 106.055 81.0117 106.117 80.8164 106.242C80.6641 106.34 80.541 106.523 80.4473 106.793ZM82.5156 108.047C82.1875 108.164 81.8457 108.268 81.4902 108.357C81.0059 108.486 80.6992 108.613 80.5703 108.738C80.4375 108.867 80.3711 109.014 80.3711 109.178C80.3711 109.365 80.4355 109.52 80.5645 109.641C80.6973 109.758 80.8906 109.816 81.1445 109.816C81.4102 109.816 81.6562 109.752 81.8828 109.623C82.1133 109.494 82.2754 109.338 82.3691 109.154C82.4668 108.967 82.5156 108.725 82.5156 108.428V108.047ZM88.9434 102.41V104.777H90.2559V106.518H88.9434V108.727C88.9434 108.992 88.9688 109.168 89.0195 109.254C89.0977 109.387 89.2344 109.453 89.4297 109.453C89.6055 109.453 89.8516 109.402 90.168 109.301L90.3438 110.947C89.7539 111.076 89.2031 111.141 88.6914 111.141C88.0977 111.141 87.6602 111.064 87.3789 110.912C87.0977 110.76 86.8887 110.529 86.752 110.221C86.6191 109.908 86.5527 109.404 86.5527 108.709V106.518H85.6738V104.777H86.5527V103.635L88.9434 102.41ZM91.4863 102.41H93.8711V104.033H91.4863V102.41ZM91.4863 104.777H93.8711V111H91.4863V104.777ZM95.1016 107.906C95.1016 106.957 95.4219 106.176 96.0625 105.562C96.7031 104.945 97.5684 104.637 98.6582 104.637C99.9043 104.637 100.846 104.998 101.482 105.721C101.994 106.303 102.25 107.02 102.25 107.871C102.25 108.828 101.932 109.613 101.295 110.227C100.662 110.836 99.7852 111.141 98.6641 111.141C97.6641 111.141 96.8555 110.887 96.2383 110.379C95.4805 109.75 95.1016 108.926 95.1016 107.906ZM97.4922 107.9C97.4922 108.455 97.6035 108.865 97.8262 109.131C98.0527 109.396 98.3359 109.529 98.6758 109.529C99.0195 109.529 99.3008 109.398 99.5195 109.137C99.7422 108.875 99.8535 108.455 99.8535 107.877C99.8535 107.338 99.7422 106.938 99.5195 106.676C99.2969 106.41 99.0215 106.277 98.6934 106.277C98.3457 106.277 98.0586 106.412 97.832 106.682C97.6055 106.947 97.4922 107.354 97.4922 107.9ZM103.398 104.777H105.619V105.791C105.951 105.377 106.287 105.082 106.627 104.906C106.967 104.727 107.381 104.637 107.869 104.637C108.529 104.637 109.045 104.834 109.416 105.229C109.791 105.619 109.979 106.225 109.979 107.045V111H107.582V107.578C107.582 107.188 107.51 106.912 107.365 106.752C107.221 106.588 107.018 106.506 106.756 106.506C106.467 106.506 106.232 106.615 106.053 106.834C105.873 107.053 105.783 107.445 105.783 108.012V111H103.398V104.777ZM110.98 109.277L113.348 109.055C113.445 109.336 113.582 109.537 113.758 109.658C113.934 109.779 114.168 109.84 114.461 109.84C114.781 109.84 115.029 109.771 115.205 109.635C115.342 109.533 115.41 109.406 115.41 109.254C115.41 109.082 115.32 108.949 115.141 108.855C115.012 108.789 114.67 108.707 114.115 108.609C113.287 108.465 112.711 108.332 112.387 108.211C112.066 108.086 111.795 107.877 111.572 107.584C111.354 107.291 111.244 106.957 111.244 106.582C111.244 106.172 111.363 105.818 111.602 105.521C111.84 105.225 112.168 105.004 112.586 104.859C113.004 104.711 113.564 104.637 114.268 104.637C115.01 104.637 115.557 104.693 115.908 104.807C116.264 104.92 116.559 105.096 116.793 105.334C117.031 105.572 117.229 105.895 117.385 106.301L115.123 106.523C115.064 106.324 114.967 106.178 114.83 106.084C114.643 105.959 114.416 105.896 114.15 105.896C113.881 105.896 113.684 105.945 113.559 106.043C113.438 106.137 113.377 106.252 113.377 106.389C113.377 106.541 113.455 106.656 113.611 106.734C113.768 106.812 114.107 106.883 114.631 106.945C115.424 107.035 116.014 107.16 116.4 107.32C116.787 107.48 117.082 107.709 117.285 108.006C117.492 108.303 117.596 108.629 117.596 108.984C117.596 109.344 117.486 109.693 117.268 110.033C117.053 110.373 116.711 110.645 116.242 110.848C115.777 111.047 115.143 111.146 114.338 111.146C113.201 111.146 112.391 110.984 111.906 110.66C111.426 110.336 111.117 109.875 110.98 109.277Z" fill="white"/>
<path d="M92.2773 17H86.3105C86.3789 16.4108 86.5856 15.8574 86.9307 15.3398C87.279 14.819 87.93 14.2054 88.8838 13.499C89.4665 13.0661 89.8392 12.7373 90.002 12.5127C90.1647 12.2881 90.2461 12.0749 90.2461 11.873C90.2461 11.6549 90.1647 11.4694 90.002 11.3164C89.8424 11.1602 89.6406 11.082 89.3965 11.082C89.1426 11.082 88.9342 11.1618 88.7715 11.3213C88.612 11.4808 88.5046 11.7624 88.4492 12.166L86.457 12.0049C86.5352 11.445 86.6784 11.0088 86.8867 10.6963C87.0951 10.3805 87.388 10.1396 87.7656 9.97363C88.1465 9.80436 88.6722 9.71973 89.3428 9.71973C90.0426 9.71973 90.5863 9.79948 90.9736 9.95898C91.3643 10.1185 91.6702 10.3643 91.8916 10.6963C92.1162 11.0251 92.2285 11.3945 92.2285 11.8047C92.2285 12.2409 92.0999 12.6576 91.8428 13.0547C91.5889 13.4518 91.125 13.888 90.4512 14.3633C90.0508 14.64 89.7822 14.8337 89.6455 14.9443C89.512 15.055 89.3542 15.1999 89.1719 15.3789H92.2773V17ZM94.127 13.3916C94.127 12.0309 94.3711 11.0788 94.8594 10.5352C95.3509 9.99154 96.098 9.71973 97.1006 9.71973C97.5824 9.71973 97.9779 9.77995 98.2871 9.90039C98.5964 10.0176 98.8486 10.1722 99.0439 10.3643C99.2393 10.5531 99.3923 10.7533 99.5029 10.9648C99.6169 11.1732 99.708 11.4173 99.7764 11.6973C99.9098 12.2311 99.9766 12.7878 99.9766 13.3672C99.9766 14.666 99.7568 15.6165 99.3174 16.2188C98.8779 16.821 98.1211 17.1221 97.0469 17.1221C96.4447 17.1221 95.958 17.026 95.5869 16.834C95.2158 16.6419 94.9115 16.3604 94.6738 15.9893C94.5013 15.7256 94.3662 15.3659 94.2686 14.9102C94.1742 14.4512 94.127 13.945 94.127 13.3916ZM96.0996 13.3965C96.0996 14.3079 96.1794 14.9313 96.3389 15.2666C96.5016 15.5986 96.736 15.7646 97.042 15.7646C97.2438 15.7646 97.418 15.6947 97.5645 15.5547C97.7142 15.4115 97.8232 15.1868 97.8916 14.8809C97.9632 14.5749 97.999 14.098 97.999 13.4502C97.999 12.4997 97.9176 11.8617 97.7549 11.5361C97.5954 11.2074 97.3545 11.043 97.0322 11.043C96.7035 11.043 96.4658 11.2106 96.3193 11.5459C96.1729 11.8779 96.0996 12.4948 96.0996 13.3965ZM101.626 9.8418H104.062L105.332 12.0439L106.562 9.8418H108.975L106.748 13.3086L109.185 17H106.699L105.288 14.7002L103.872 17H101.401L103.872 13.2695L101.626 9.8418ZM110.409 9.8418H112.846L114.115 12.0439L115.346 9.8418H117.758L115.531 13.3086L117.968 17H115.482L114.071 14.7002L112.655 17H110.185L112.655 13.2695L110.409 9.8418Z" fill="white"/>
<defs>
<linearGradient id="paint0_linear" x1="-2.5" y1="128" x2="138" y2="-3.99999" gradientUnits="userSpaceOnUse">
<stop stop-color="#5C33D1"/>
<stop offset="1" stop-color="#40C9E7"/>
</linearGradient>
</defs>
</svg>
