<svg width="128" height="128" viewBox="0 0 128 128" fill="none" xmlns="http://www.w3.org/2000/svg">
<rect width="128" height="128" rx="15" fill="url(#paint0_linear)"/>
<path d="M14.125 36.8711H32.7051V82.1934H61.7031V97H14.125V36.8711ZM69.0449 53.4414H84.5898V60.5371C86.9141 57.6387 89.2656 55.5742 91.6445 54.3438C94.0234 53.0859 96.9219 52.457 100.34 52.457C104.961 52.457 108.57 53.8379 111.168 56.5996C113.793 59.334 115.105 63.5723 115.105 69.3145V97H98.3301V73.0469C98.3301 70.3125 97.8242 68.3848 96.8125 67.2637C95.8008 66.1152 94.3789 65.541 92.5469 65.541C90.5234 65.541 88.8828 66.3066 87.625 67.8379C86.3672 69.3691 85.7383 72.1172 85.7383 76.082V97H69.0449V53.4414Z" fill="white"/>
<defs>
<linearGradient id="paint0_linear" x1="-2.5" y1="128" x2="138" y2="-3.99999" gradientUnits="userSpaceOnUse">
<stop stop-color="#5C33D1"/>
<stop offset="1" stop-color="#40C9E7"/>
</linearGradient>
</defs>
</svg>
